<?xml version="1.0" encoding="UTF-8" standalone="no"?>
<svg
   width="32"
   height="32"
   viewBox="0 0 16 16"
   version="1.1"
   id="svg894"
   xmlns="http://www.w3.org/2000/svg"
   xmlns:svg="http://www.w3.org/2000/svg"
   xmlns:rdf="http://www.w3.org/1999/02/22-rdf-syntax-ns#"
   xmlns:cc="http://creativecommons.org/ns#"
   xmlns:dc="http://purl.org/dc/elements/1.1/">
  <defs
     id="defs898" />
  <title
     id="title892">empty</title>
  <rect
     style="fill:#917c6f;stroke:#483e37;stroke-width:0.149642;fill-opacity:1"
     id="rect31243"
     width="15.740236"
     height="15.741916"
     x="0.12676941"
     y="0.13518293"
     rx="1.8898067"
     ry="1.8807137" />
  <g
     aria-label="И"
     id="text8000"
     style="font-size:9.33333px;line-height:1.25;stroke-width:0.15;fill:#ffe680;stroke:#554400;stroke-miterlimit:4;stroke-dasharray:none"
     transform="translate(0.56747232)">
    <path
       d="m 0.41572881,7.7654881 q -0.13066662,0 -0.13066662,-0.1493332 0,-0.1213333 0.13066662,-0.1213333 0.39199987,0 0.57866647,-0.14 Q 1.1810619,7.2054883 1.1810619,6.8788218 V 1.8574902 q 0,-0.2893333 -0.1586666,-0.4479999 -0.15866664,-0.1586666 -0.55999984,-0.1586666 -0.13066662,0 -0.13066662,-0.14 0,-0.12133324 0.13066662,-0.12133324 0.0373333,0 0.19599994,0.009333 0.15866661,0 0.3733332,0 0.2146666,0 0.4106665,0.009333 0.196,0 0.3079999,0 0.112,0 0.3079999,0 0.2053333,-0.009333 0.4199999,-0.009333 0.2146666,0 0.3733332,0 0.1679999,-0.009333 0.2053332,-0.009333 0.1213333,0 0.1213333,0.12133324 0,0.14 -0.1213333,0.14 -0.4013332,0 -0.5693331,0.1586666 Q 2.3197282,1.5681569 2.3197282,1.8574902 V 5.8894888 Q 3.6263944,4.200156 4.3357275,3.2294897 5.0543939,2.2588234 5.2317272,2.0534901 V 1.8574902 q 0,-0.2986666 -0.1773333,-0.4479999 Q 4.886394,1.2508237 4.4943941,1.2508237 q -0.1213333,0 -0.1213333,-0.14 0,-0.12133324 0.1213333,-0.12133324 0.037333,0 0.1959999,0.009333 0.168,0 0.3826666,0 0.2146666,0 0.4106665,0.009333 0.2053332,0 0.3173332,0 0.112,0 0.3079999,0 0.1959999,-0.009333 0.4106665,-0.009333 0.2146666,0 0.3733332,0 0.168,-0.009333 0.2053333,-0.009333 0.1306666,0 0.1306666,0.12133324 0,0.14 -0.1306666,0.14 -0.4013332,0 -0.5693331,0.1679999 -0.168,0.1586667 -0.168,0.4386666 v 5.0213316 q 0,0.3173332 0.1866666,0.4666665 0.1866666,0.1493333 0.5973332,0.1493333 0.1213332,0 0.1213332,0.1213333 0,0.1493332 -0.1213332,0.1493332 -0.046667,0 -0.224,0 -0.1679999,-0.00933 -0.3919998,-0.00933 -0.2146666,-0.00933 -0.4199999,-0.00933 -0.1959999,-0.00933 -0.3079999,-0.00933 -0.112,0 -0.3173332,0.00933 -0.2053333,0 -0.4293332,0.00933 -0.2146666,0 -0.3826665,0.00933 -0.168,0 -0.2146666,0 -0.065333,0 -0.093333,-0.028 -0.028,-0.028 -0.028,-0.1213333 0,-0.046667 0.028,-0.093333 0.028,-0.046667 0.093333,-0.046667 0.4293332,0 0.5973331,-0.1213333 Q 5.2317272,7.224155 5.2317272,6.8788218 V 2.6321566 Q 4.8957273,3.0894897 4.4850608,3.6401562 4.0743942,4.1908227 3.6637277,4.7414892 3.2530612,5.2828223 2.8983946,5.7494888 2.5530614,6.206822 2.3197282,6.4868219 v 0.3919999 q 0.00933,0.3919998 0.2426665,0.5039998 0.2333333,0.112 0.5319999,0.112 0.065333,0 0.1026666,0.037333 0.037333,0.037333 0.037333,0.084 0,0.1493332 -0.1399999,0.1493332 -0.037333,0 -0.2146666,0 -0.168,-0.00933 -0.3919999,-0.00933 -0.2146666,-0.00933 -0.4199999,-0.00933 -0.2053332,-0.00933 -0.3173332,-0.00933 -0.1119999,0 -0.3173332,0.00933 -0.1959999,0 -0.4199999,0.00933 -0.21466655,0 -0.38266649,0.00933 -0.16799995,0 -0.2146663,3e-7 z"
       style="font-family:'Zen Antique';-inkscape-font-specification:'Zen Antique';fill:#ffe680;stroke:#554400;stroke-width:0.15;stroke-miterlimit:4;stroke-dasharray:none"
       id="path30997" />
  </g>
  <g
     aria-label="Я"
     id="text21338"
     style="font-size:12.1049px;line-height:1.25;stroke-width:0.16198102;fill:#d4aa00;stroke:#554400;stroke-miterlimit:4;stroke-dasharray:none"
     transform="matrix(0.92603443,0,0,0.92603443,0.96032488,0.92340385)">
    <path
       d="m 8.1853398,15.611433 q -0.121049,0.09684 -0.1936784,0.08473 -0.060524,0 -0.096839,-0.03632 -0.02421,-0.02421 -0.036315,-0.121049 -0.012105,-0.09684 0.036315,-0.157364 Q 8.1248153,15.103027 8.4153329,14.643041 8.7179554,14.170949 9.0084731,13.565704 9.3110956,12.960459 9.5410887,12.282585 9.7831867,11.604711 9.867921,10.902626 9.9042357,10.648423 9.746872,10.575794 9.1537319,10.370011 8.7300603,9.8858147 8.3063888,9.4016187 8.3063888,8.5663805 q 0,-0.7747136 0.3510421,-1.2831194 0.3510422,-0.5205107 0.9683921,-0.7868185 0.61735,-0.2663078 1.404168,-0.2663078 0.423672,0 1.089441,0.02421 0.677875,0.012105 1.682582,0.012105 0.61735,0 1.089441,-0.012105 0.472091,-0.02421 0.556825,-0.02421 0.169469,0 0.169469,0.1815735 0,0.060524 -0.04842,0.121049 -0.03632,0.04842 -0.121049,0.04842 -0.423671,0 -0.61735,0.096839 -0.193678,0.084734 -0.242098,0.242098 -0.04842,0.1573637 -0.04842,0.3752519 v 6.6334848 q 0,0.242098 0.04842,0.411567 0.04842,0.157364 0.242098,0.242098 0.193679,0.08473 0.629455,0.08473 0.157364,0 0.157364,0.181574 0,0.169468 -0.157364,0.169468 -0.121049,0 -0.581035,-0.0121 -0.447882,-0.02421 -1.077336,-0.02421 -0.66577,0 -1.149966,0.02421 -0.472091,0.0121 -0.581035,0.0121 -0.181574,0 -0.181574,-0.169468 0,-0.181574 0.181574,-0.181574 0.447881,0 0.665769,-0.08473 0.217889,-0.08473 0.278413,-0.254203 0.07263,-0.169468 0.07263,-0.399462 v -2.880966 h -1.428378 q -0.08473,0 -0.133154,0.02421 -0.03631,0.02421 -0.08473,0.157364 -0.326832,1.053126 -0.907867,1.900469 -0.5689308,0.835238 -1.1983856,1.464693 -0.6294549,0.61735 -1.1499656,1.016812 z M 11.7926,10.648423 h 1.295224 V 6.6053867 h -1.561532 q -0.59314,0 -0.944182,0.2784127 -0.351042,0.2784127 -0.508406,0.726294 -0.1452585,0.4357764 -0.1452585,0.9562871 0,0.9683921 0.4236715,1.5252175 0.435776,0.556825 1.440483,0.556825 z"
       style="font-family:'Zen Antique';-inkscape-font-specification:'Zen Antique';fill:#d4aa00;stroke:#554400;stroke-width:0.16198102;stroke-miterlimit:4;stroke-dasharray:none"
       id="path31018" />
  </g>
  <g
     aria-label="_"
     id="text23544"
     style="font-size:10.0264px;line-height:1.25;stroke-width:0.12748914;fill:#ffcc00;stroke:#554400;stroke-miterlimit:4;stroke-dasharray:none"
     transform="matrix(1.3843188,0,0,1,4.7549666,-7.781952)">
    <path
       d="m -2.8159769,17.066096 v -0.671769 h 5.0533054 v 0.671769 z"
       style="font-family:'Zen Antique';-inkscape-font-specification:'Zen Antique';fill:#ffcc00;stroke:#554400;stroke-width:0.12748914;stroke-miterlimit:4;stroke-dasharray:none"
       id="path25374" />
  </g>
  <metadata
     id="metadata35048">
    <rdf:RDF>
      <cc:Work
         rdf:about="">
        <dc:title>empty</dc:title>
      </cc:Work>
    </rdf:RDF>
  </metadata>
</svg>
